<svg width="97" height="96" viewBox="0 0 97 96" fill="none" xmlns="http://www.w3.org/2000/svg">
<path d="M45.2222 10C35.9396 10 27.0372 13.6875 20.4734 20.2513C13.9097 26.815 10.2222 35.7174 10.2222 45C10.2222 54.2826 13.9097 63.185 20.4734 69.7487C27.0372 76.3125 35.9396 80 45.2222 80C54.5047 80 63.4071 76.3125 69.9709 69.7487C76.5347 63.185 80.2222 54.2826 80.2222 45C80.2222 35.7174 76.5347 26.815 69.9709 20.2513C63.4071 13.6875 54.5047 10 45.2222 10Z" fill="#039BE5"/>
<path d="M49.641 46.88H59.5669L61.1253 38.6099H49.639V34.0899C49.639 30.6543 51.0077 27.6079 54.9259 27.6079H61.2222V20.3907C60.1159 20.2682 57.7763 20 53.3554 20C44.124 20 38.712 23.9985 38.712 33.1081V38.6099H29.2222V46.88H38.712V69.6109C40.5913 69.8427 42.4949 70 44.449 70C46.2154 70 47.9393 69.8675 49.641 69.6788V46.88Z" fill="white"/>
</svg>
