<svg width="76" height="76" viewBox="0 0 76 76" fill="none" xmlns="http://www.w3.org/2000/svg">
<path d="M65.3315 21.5625C64.7065 21.9687 63.8159 22.3438 63.4409 22.7656C63.3003 22.9062 63.2222 23.0625 63.2534 23.2188V24.8281L62.7847 26.4062L62.3159 27.9688L61.8003 29.6875L60.7378 33.2031L59.7065 36.6719L58.9253 39.2812C58.9253 39.6875 58.9097 40.0938 58.8784 40.4844C58.769 41.9844 58.4565 43.4219 57.9565 44.7656C57.6597 45.5938 57.3003 46.3906 56.8628 47.1406C56.7065 47.4375 56.519 47.7344 56.3315 48.0156C55.7065 49 54.9565 49.9062 54.1284 50.7031C53.4878 51.3438 52.7847 51.9375 52.019 52.4375C52.019 52.4375 52.019 52.4375 52.0034 52.4375C51.8784 52.5469 51.7378 52.6406 51.5815 52.7187C51.0972 53.0469 50.5815 53.3281 50.0503 53.5781C49.6909 53.7656 49.3315 53.9219 48.9565 54.0625C48.8784 54.1094 48.7847 54.1406 48.7065 54.1719C47.8159 54.5937 46.7847 54.875 45.7534 55.0156C45.6909 55.0312 45.644 55.0312 45.5815 55.0469C44.9565 55.1562 44.3472 55.25 43.7222 55.2969C43.4409 55.3281 43.144 55.3437 42.8628 55.3437L41.7534 55.2813L36.4097 55C36.4097 54.9844 36.394 55 36.394 55L33.7065 54.8594C33.5034 54.8594 33.2847 54.8594 33.0815 54.8438C32.2378 54.8125 31.4253 54.7188 30.6128 54.5469C30.5972 54.5469 30.5972 54.5469 30.5972 54.5469C29.1128 54.2656 27.6909 53.7656 26.3628 53.0938C25.6284 52.7188 24.9097 52.2969 24.2378 51.8125C23.9565 51.6094 23.6909 51.3906 23.4253 51.1562C22.6753 50.5312 22.0034 49.8594 21.3784 49.1719C21.2847 49.0781 21.2065 48.9844 21.1284 48.8906C21.0347 48.7969 20.9409 48.6875 20.8628 48.5938C20.269 47.8438 19.769 47.0781 19.3628 46.2656C18.9878 45.5469 18.6909 44.7812 18.4565 43.9375C18.3628 43.6406 18.2847 43.3594 18.2222 43.0469C18.2065 43.0312 18.1909 43 18.1909 42.9688C18.0347 42.3281 17.894 41.6562 17.8159 40.9844C17.7222 40.4688 17.6753 39.9531 17.6753 39.4219C17.644 39.2188 17.644 39 17.644 38.7969L20.6284 34.1875L23.5503 29.6875L24.8784 27.6406L26.0815 25.7969L26.4878 25.1562V23.5469C26.519 23.1875 26.5347 22.8125 26.519 22.4688C26.5034 21.375 26.2847 20.3125 25.9253 19.2969C25.5815 18.2188 25.0972 17.2031 24.5972 16.2656C24.0034 15.1875 23.3784 14.2188 22.8628 13.3438C22.0972 12.0625 21.5659 11.0156 21.7065 10.2813C22.8315 10.0156 24.019 9.875 25.2222 9.875H50.2222C56.7534 9.875 62.3784 13.9375 64.7065 19.6562C64.9565 20.2656 65.1753 20.9062 65.3315 21.5625Z" fill="#304FFE"/>
<path d="M65.8472 25.5V25.9219L63.6909 27.1719L62.3159 27.9688L60.8003 28.8438L57.7691 30.6094L54.8003 32.3281L51.7691 34.0781L50.5659 34.7812C50.5659 35.5312 50.3784 36.2188 50.0347 36.8438C49.5503 37.75 48.7378 38.5 47.7065 39.1406C46.6597 39.7812 45.3784 40.2969 43.9409 40.6719C43.9409 40.6719 43.9409 40.6562 43.9253 40.6719C38.3628 42.1094 30.769 41.4531 27.0815 38.7031C26.0503 37.9375 25.3315 37 25.019 35.9219C24.9253 35.5625 24.8784 35.1719 24.8784 34.7812V23.5469C24.894 23.3125 24.7378 23.0781 24.4565 22.8438C23.6128 22.1719 21.6284 21.5312 19.4097 20.8906C17.6753 20.4062 15.8159 19.9219 14.2534 19.4531C13.019 19.0781 11.9722 18.7031 11.3472 18.3438C11.6284 17.7969 11.9565 17.25 12.3003 16.7344C14.4878 13.5313 17.8315 11.1719 21.7065 10.2813C22.8315 10.0156 24.019 9.875 25.2222 9.875H42.0972C50.4878 11.3438 58.2222 14.7656 64.7066 19.6562C64.9566 20.2656 65.1753 20.9062 65.3315 21.5625C65.6128 22.5937 65.7847 23.6562 65.8316 24.7656C65.8472 25 65.8472 25.25 65.8472 25.5Z" fill="#4928F4"/>
<path d="M65.8472 25.5V32.3906L65.5034 33.4531L64.3315 37.0938L63.1128 40.8438L62.4722 42.8438L61.8784 44.7031L61.3003 46.4688L60.7378 48.2188L60.4409 49.1406L60.0503 50.3594C60.0503 51.5469 60.019 52.5938 59.9409 53.4844C59.9253 53.5781 59.9097 53.6719 59.9097 53.7656C59.8159 54.5938 59.6909 55.2969 59.4878 55.8906C59.4722 55.9844 59.4409 56.0781 59.4097 56.1563C59.0034 57.2813 58.394 58 57.4878 58.4688C57.269 58.5938 57.019 58.6875 56.7534 58.7813C55.9253 59.0625 54.8784 59.2031 53.5972 59.2813C52.6597 59.3438 51.5815 59.3594 50.3628 59.3594H49.2847L47.4253 59.2813L47.0972 59.2656L43.7065 59.125L40.269 58.9844L28.9409 58.5156L26.0034 58.3906H25.5972C24.3784 58.375 23.3315 58.2969 22.4253 58.1719C21.1128 57.9688 20.0972 57.625 19.3315 57.1094C18.2378 56.4063 17.5972 55.375 17.2222 53.9375C17.1284 53.5938 17.0503 53.2344 17.0034 52.8438C16.8472 51.9375 16.769 50.8906 16.7222 49.7188C16.7222 49.4844 16.7222 49.25 16.7065 49C16.6909 48.9844 16.7065 48.9844 16.7065 48.9844V48.0781C16.6909 47.625 16.6909 47.1563 16.6909 46.6719L16.769 44.1563L16.8159 42.3594L16.8784 40.2656V39.9688L16.9878 36.125L17.0972 32.2813L17.2065 28.6719L17.3003 25.125L17.3315 24.1875C17.3315 23.7031 15.6909 23.4219 13.8628 23.1875C12.4097 23 10.8159 22.8281 9.86279 22.6094C9.94092 22.25 10.019 21.8906 10.1128 21.5469C10.394 20.4219 10.8159 19.3594 11.3472 18.3438C11.6284 17.7969 11.9565 17.25 12.3003 16.7344C15.6753 15.25 19.1909 14.0938 22.8628 13.3438C26.0815 12.6719 29.4409 12.3125 32.9097 12.3125C44.4097 12.3125 55.0347 16.2031 63.4409 22.7656C64.2534 23.3906 65.0503 24.0625 65.8315 24.7656C65.8472 25 65.8472 25.25 65.8472 25.5Z" fill="#6200EA"/>
<path d="M65.8472 29.2031V36.2969L64.9878 37.9531L63.3472 41.1562L62.4722 42.8438L61.6753 44.3906L61.3315 45.0625C61.3315 45.5469 61.3315 46.0156 61.3003 46.4688C61.3003 47.1406 61.269 47.7812 61.2222 48.375C61.1597 49.0781 61.0659 49.7188 60.9722 50.3125C60.7378 51.5469 60.4097 52.6094 59.9409 53.4844C59.8784 53.5938 59.8159 53.7031 59.7534 53.7969C59.5815 54.0781 59.3784 54.3437 59.1597 54.5937C58.8784 54.9375 58.5659 55.2344 58.2065 55.4844C57.6753 55.8906 57.0503 56.2188 56.3315 56.4688C55.4409 56.7969 54.4097 57.0156 53.1909 57.1406C52.394 57.2188 51.519 57.2656 50.5659 57.2656L49.9097 57.2969L46.6597 57.4844H46.644L43.1909 57.6875L39.6753 57.8906L34.8315 58.1719L28.9409 58.5156L28.0815 58.5625C27.2847 58.5625 26.5347 58.5156 25.8159 58.4219C25.7378 58.4062 25.6753 58.3906 25.5972 58.3906C24.5347 58.2187 23.5659 57.9375 22.6909 57.5469C21.6284 57.0781 20.7065 56.4531 19.9253 55.7031C19.2378 55.0312 18.644 54.2656 18.1597 53.4062C18.0503 53.2031 17.9409 53.0156 17.8472 52.7969C17.3784 51.875 17.0034 50.8438 16.7222 49.7188C16.6753 49.5312 16.6284 49.3281 16.5972 49.125C16.5034 48.7656 16.4253 48.3906 16.3784 48C16.2065 47 16.1128 45.9375 16.0659 44.8281V44.8125C16.0503 44.3594 16.0347 43.9219 16.0347 43.4531L15.269 41.625L15.1597 41.3437L15.0659 41.1094L13.894 38.3125L13.7065 37.8594L12.5815 35.1563L11.3315 32.1406C11.3315 32.1406 11.3315 32.1406 11.3159 32.1406L10.0503 29.0937L9.59717 27.9844V25.5C9.59717 24.5156 9.69092 23.5469 9.86279 22.6094C9.94092 22.25 10.019 21.8906 10.1128 21.5469C11.4409 20.7813 12.8315 20.0781 14.2534 19.4531C17.5034 18 20.9878 16.9219 24.5972 16.2656C27.2847 15.7813 30.0815 15.5156 32.9097 15.5156C44.3315 15.5156 54.6909 19.6562 62.7847 26.4062C63.0972 26.6562 63.394 26.9062 63.6909 27.1719C64.4253 27.8125 65.144 28.4844 65.8472 29.2031Z" fill="#673AB7"/>
<path d="M65.8472 33.8594V41.8906L64.9565 43.75L63.269 47.2656L63.2534 47.3125C63.2534 47.9844 63.2222 48.5937 63.1753 49.1406C63.019 50.9375 62.5815 52.0781 61.8628 52.7812C61.3472 53.3125 60.7065 53.6094 59.9097 53.7656C59.8628 53.7812 59.8003 53.7812 59.7534 53.7969C59.5034 53.8438 59.2378 53.875 58.9565 53.875C57.9878 53.9688 56.8472 53.9062 55.5347 53.8125C55.394 53.8125 55.2378 53.7969 55.0815 53.7812C54.1284 53.7187 53.1128 53.6563 51.9878 53.6094C51.3784 53.5938 50.7378 53.5781 50.0815 53.5781H50.0503L48.4722 53.7031H48.4565L44.9097 53.9531L40.8628 54.2656L40.269 54.3125L35.5347 54.6562L33.0815 54.8437L30.6597 55.0156C30.2378 55.0156 29.8315 55.0156 29.4253 55C29.4253 55 29.4097 54.9844 29.4097 55C27.644 54.9688 26.0659 54.8594 24.6597 54.5938C23.3628 54.375 22.2222 54.0312 21.2534 53.5156C20.2534 53.0312 19.4253 52.3438 18.7534 51.4688C18.1128 50.6094 17.644 49.5312 17.3472 48.2344C17.3472 48.2187 17.3472 48.2188 17.3472 48.2188C17.1284 47.1719 17.0034 45.9531 17.0034 44.5781L16.769 44.1562L15.3784 41.6719L15.1753 41.3281L15.0659 41.1094L13.6128 38.5312L12.894 37.2344L11.9878 35.625L10.4253 32.8281L9.59717 31.3594V25.6094C10.9722 24.7031 12.394 23.9063 13.8628 23.1875C15.644 22.2813 17.4878 21.5156 19.4097 20.8906C21.5034 20.2031 23.6909 19.6562 25.9253 19.2969C28.1909 18.9219 30.519 18.7344 32.9097 18.7344C43.5347 18.7344 53.2847 22.5312 60.8003 28.8437C61.144 29.1094 61.4722 29.4062 61.8003 29.6875C63.1128 30.8594 64.3628 32.125 65.5034 33.4531C65.6284 33.5938 65.7534 33.7188 65.8472 33.8594Z" fill="#8E24AA"/>
<path d="M65.8472 39.1094V50.4063C65.4722 50.1875 64.9565 49.9219 64.3159 49.6406C63.9722 49.4688 63.5815 49.2969 63.1753 49.1406C62.5815 48.875 61.9409 48.625 61.2222 48.375C61.0659 48.3125 60.9097 48.2656 60.7378 48.2188C60.4565 48.1094 60.1597 48.0156 59.8628 47.9219C58.9409 47.6406 57.9253 47.375 56.8628 47.1406C56.4565 47.0625 56.0347 46.9844 55.6128 46.9219C54.2534 46.6875 52.8003 46.5469 51.2847 46.5312C51.1597 46.5156 51.019 46.5156 50.894 46.5156L46.8784 46.5469L41.4097 46.5781H41.394L29.6909 46.6719C25.9722 46.6719 23.6909 47.5625 22.3159 47.9219C22.3159 47.9219 22.3003 47.9219 22.3003 47.9375C20.8472 48.3125 20.394 48.0781 20.269 45.5312C20.2378 44.8281 20.2222 43.9219 20.2222 42.8125L19.3472 42.1406L17.8159 40.9844L16.8784 40.2656L16.6909 40.125L14.0972 38.1562L13.7065 37.8594L12.894 37.2344L11.394 36.1094L9.59717 34.7344V29.4219C9.75342 29.2969 9.89404 29.1875 10.0503 29.0937C12.3159 27.5312 14.7378 26.2031 17.3003 25.125C19.5815 24.1562 21.9878 23.3906 24.4565 22.8437C25.1284 22.7031 25.8159 22.5625 26.519 22.4688C28.5972 22.1094 30.7378 21.9375 32.9097 21.9375C42.3003 21.9375 50.9253 25.2031 57.769 30.6094C58.8003 31.4219 59.8003 32.2812 60.7378 33.2031C62.019 34.4219 63.2222 35.7188 64.3315 37.0938C64.5503 37.375 64.769 37.6562 64.9878 37.9531C65.2847 38.3281 65.5659 38.7187 65.8472 39.1094Z" fill="#C2185B"/>
<path d="M65.8472 45.375V50.5C65.8472 51.5156 65.7534 52.5156 65.5659 53.4844C65.2847 54.9219 64.8003 56.2969 64.144 57.5781C63.8003 57.6562 63.4097 57.6563 62.9722 57.5938C61.9878 57.4219 60.8315 56.9062 59.5815 56.2344C59.519 56.2188 59.4565 56.1875 59.4097 56.1562C59.019 55.9531 58.6128 55.7344 58.2065 55.4844C57.3784 55.0312 56.5034 54.5312 55.6284 54.0625C55.4409 53.9688 55.2534 53.875 55.0815 53.7812C54.0815 53.2656 53.0503 52.7969 52.019 52.4375C52.019 52.4375 52.019 52.4375 52.0034 52.4375C51.7847 52.3594 51.5503 52.2812 51.3159 52.2188C50.4253 51.9688 49.519 51.8125 48.644 51.8125L46.9253 51.3125L39.3159 49.1094C39.3159 49.1094 39.3159 49.1094 39.3003 49.1094L34.6284 47.75H34.6128L32.5815 47.1563C26.7065 47.1563 23.0972 49.6563 21.3472 48.7031C20.6597 48.3438 20.2534 47.4375 20.1128 45.6562C20.0659 45.1562 20.0503 44.5938 20.0503 43.9375L18.2222 43.0469L18.144 43.0156H18.1284L16.8159 42.3594L15.3784 41.6719L15.269 41.625L15.0034 41.4844L11.9409 40L9.59717 38.8594V33.5C9.86279 33.2656 10.144 33.0469 10.4253 32.8281C10.7222 32.5938 11.019 32.375 11.3159 32.1406C11.3315 32.1406 11.3315 32.1406 11.3315 32.1406C13.1753 30.8125 15.1284 29.6406 17.2065 28.6719C19.6284 27.5156 22.2065 26.625 24.8784 26.0469C25.269 25.9531 25.6753 25.8594 26.0815 25.7969C28.3003 25.375 30.5815 25.1562 32.9097 25.1562C41.144 25.1562 48.7065 27.8281 54.8003 32.3281C56.5659 33.6406 58.2065 35.0938 59.7065 36.6719C60.9409 37.9688 62.0815 39.375 63.1128 40.8438C63.1909 40.9531 63.269 41.0625 63.3472 41.1563C63.9253 42 64.4565 42.8594 64.9565 43.75C65.2847 44.2812 65.5659 44.8281 65.8472 45.375Z" fill="#D81B60"/>
<path d="M65.5659 53.4844C65.2847 54.9219 64.8003 56.2969 64.144 57.5781C63.8472 58.1562 63.519 58.7031 63.1597 59.2344C62.9409 59.5625 62.7065 59.875 62.4722 60.1719C61.9097 59.9531 61.0815 59.6406 60.0659 59.2969C60.0659 59.2969 60.0659 59.2969 60.0659 59.2812C59.3003 59.0156 58.4253 58.7344 57.4878 58.4687C57.2222 58.3906 56.9565 58.3125 56.6753 58.2344C55.5659 57.9375 54.4097 57.6719 53.2847 57.5156C52.3472 57.3594 51.4253 57.2656 50.5659 57.2656L49.8472 57.0625H49.8315L46.0503 55.9688L43.7222 55.2969L41.1284 54.5469H41.1128L40.269 54.3125L30.0659 51.375L27.1284 50.5312L24.9409 50.0156L21.3784 49.1719L20.9409 49.0625C20.9409 49.0625 20.9409 49.0625 20.9253 49.0625L17.3472 48.2344C17.3472 48.2187 17.3472 48.2188 17.3472 48.2188L16.7065 48.0781L16.3784 48L13.769 47.3906L13.4722 47.3125L11.2534 45.4844L9.59717 44.0938V37.7188C10.1753 37.1562 10.769 36.625 11.394 36.1094C11.5815 35.9375 11.7847 35.7812 11.9878 35.625C12.1753 35.4687 12.3784 35.3125 12.5815 35.1563C14.0034 34.0781 15.5034 33.1094 17.0972 32.2813C19.1284 31.1875 21.2847 30.3125 23.5503 29.6875C23.9878 29.5469 24.4253 29.4219 24.8784 29.3281C27.4409 28.6875 30.1284 28.3594 32.9097 28.3594C39.894 28.3594 46.394 30.4687 51.769 34.0781C54.4409 35.875 56.8472 38.0312 58.8784 40.4844C59.9097 41.7188 60.8472 43.0156 61.6753 44.3906C61.7534 44.5 61.8159 44.5938 61.8784 44.7031C62.3784 45.5313 62.8472 46.3906 63.269 47.2656C63.6597 48.0469 64.0034 48.8281 64.3159 49.6406C64.8159 50.8906 65.2222 52.1719 65.5659 53.4844Z" fill="#F50057"/>
<path d="M63.1597 59.2344C62.9409 59.5625 62.7065 59.875 62.4722 60.1719C61.7847 61.0312 61.0347 61.8125 60.1909 62.5C59.4565 63.1094 58.6753 63.6563 57.8472 64.125C57.5347 64.0469 57.2222 63.9531 56.894 63.8281C55.8628 63.4687 54.7847 62.875 53.7847 62.25C52.2847 61.2969 50.9878 60.2656 50.4097 59.7969C50.1909 59.6094 50.0815 59.5156 50.0815 59.5156L47.4253 59.2812L47.0972 59.25L43.6597 58.9531L40.0972 58.6406L34.8315 58.1719L26.4878 57.4375L26.4565 57.4219L23.519 56L20.5503 54.5625L18.1597 53.4063L17.644 53.1563L17.0034 52.8438L14.7847 51.7656L11.8315 50.3438L10.9097 49.8906L9.59717 49.4844V42.5C10.3315 41.625 11.1128 40.7969 11.9409 40C12.4722 39.5 13.0347 39 13.6128 38.5313C13.7065 38.4531 13.8003 38.375 13.894 38.3125C13.9565 38.2344 14.0347 38.1875 14.0972 38.1563C15.019 37.4063 15.9878 36.7344 16.9878 36.125C18.144 35.3906 19.3628 34.7344 20.6284 34.1875C21.9878 33.5781 23.4097 33.0625 24.8784 32.6719C27.4253 31.9531 30.1284 31.5781 32.9097 31.5781C39.2847 31.5781 45.1753 33.5156 50.0347 36.8438C53.144 38.9688 55.8315 41.6563 57.9565 44.7656C58.6597 45.7656 59.2847 46.8281 59.8628 47.9219C60.0659 48.3281 60.269 48.7344 60.4409 49.1406C60.6284 49.5312 60.8003 49.9219 60.9722 50.3125C61.3003 51.125 61.5972 51.9375 61.8628 52.7812C62.3628 54.3438 62.7378 55.9375 62.9722 57.5938C63.0503 58.1406 63.1128 58.6875 63.1597 59.2344Z" fill="#FF1744"/>
<path d="M60.2065 62.0937C60.2065 62.2187 60.2065 62.3594 60.1909 62.5C59.4565 63.1094 58.6753 63.6563 57.8472 64.125C57.5034 64.3125 57.1597 64.5 56.8003 64.6563C56.4409 64.8281 56.0815 64.9844 55.7065 65.125C55.1753 64.8438 54.4565 64.5 53.6909 64.1719C52.6128 63.6875 51.4409 63.25 50.5347 63.1094C50.3159 63.0625 50.1128 63.0469 49.9253 63.0469L47.3628 62.7187H47.3315L44.144 62.2969L40.9253 61.875L39.4253 61.6875L27.6128 60.1562C26.8472 60.1562 26.0347 60.1094 25.1909 60C24.1597 59.9063 23.0815 59.75 22.0034 59.5312C20.9409 59.3437 19.8628 59.0938 18.8315 58.8281C17.7534 58.5781 16.6909 58.2812 15.7065 58C14.5659 57.6562 13.5034 57.3281 12.6128 57.0312C11.8784 56.7969 11.2534 56.5781 10.769 56.4062C10.4878 55.7344 10.2534 55.0312 10.0815 54.3125C9.75342 53.0937 9.59717 51.8125 9.59717 50.5V47.8906C10.0972 47.0625 10.644 46.25 11.2534 45.4844C12.3628 44.0156 13.6284 42.6719 15.0034 41.4844C15.0503 41.4219 15.1128 41.375 15.1597 41.3437L15.1753 41.3281C15.6597 40.8906 16.1597 40.5 16.6909 40.125C16.7534 40.0625 16.8159 40.0156 16.8784 39.9687C17.1284 39.7812 17.394 39.5937 17.6753 39.4219C19.9097 37.9062 22.3784 36.7187 25.019 35.9219C27.519 35.1719 30.1597 34.7812 32.9097 34.7812C38.3628 34.7812 43.4565 36.3906 47.7065 39.1406C50.8472 41.1562 53.5503 43.8125 55.6128 46.9219C55.8628 47.2812 56.0972 47.6406 56.3315 48.0156C57.4097 49.8437 58.3003 51.8125 58.9565 53.875C59.0347 54.1094 59.0972 54.3437 59.1597 54.5937C59.2847 55.0156 59.394 55.4531 59.4878 55.8906C59.519 56 59.5503 56.1094 59.5815 56.2344C59.8003 57.2187 59.9565 58.25 60.0659 59.2812C60.0659 59.2969 60.0659 59.2969 60.0659 59.2969C60.1597 60.2188 60.2065 61.1562 60.2065 62.0937Z" fill="#FF5722"/>
<path d="M56.9878 62.0937C56.9878 62.6406 56.9565 63.2344 56.894 63.8281C56.8628 64.1094 56.8315 64.3906 56.8003 64.6563C56.4409 64.8281 56.0815 64.9844 55.7065 65.125C55.0034 65.3906 54.2847 65.6094 53.5503 65.7656C53.0503 65.875 52.5347 65.9688 52.019 66.0156H52.0034C51.519 65.7188 50.9565 65.3594 50.3784 64.9531C49.3315 64.2188 48.2378 63.3906 47.3628 62.7188C47.3472 62.7031 47.3472 62.7031 47.3315 62.6875C46.4097 61.9844 45.7534 61.4531 45.7534 61.4531L44.0972 61.5156L40.9097 61.625L39.4253 61.6875L33.4565 61.9062L28.4097 62.0937C28.0815 62.1094 27.6909 62.1094 27.2065 62.0937H27.1909C26.5347 62.0781 25.7534 62.0313 24.894 61.9531C23.894 61.875 22.8003 61.7813 21.6909 61.6719C20.6128 61.5469 19.519 61.4219 18.4722 61.2969C17.3159 61.1719 16.2222 61.0312 15.2847 60.9062C14.5503 60.8125 13.9097 60.7344 13.394 60.6719C12.9565 60.1719 12.5659 59.6562 12.1909 59.0938C11.6284 58.25 11.144 57.3594 10.769 56.4062C10.4878 55.7344 10.2534 55.0312 10.0815 54.3125C10.5347 52.9219 11.1284 51.6094 11.8315 50.3437C12.394 49.3125 13.0503 48.3281 13.769 47.3906C14.4722 46.4688 15.2378 45.6094 16.0659 44.8281V44.8125C16.3003 44.5781 16.5347 44.3594 16.769 44.1563C17.2065 43.75 17.6597 43.375 18.1284 43.0156H18.144C18.1597 42.9844 18.1753 42.9844 18.1909 42.9688C18.5659 42.6719 18.9565 42.4062 19.3472 42.1406C21.6597 40.5625 24.269 39.3906 27.0815 38.7031C28.9409 38.25 30.894 38 32.9097 38C36.8784 38 40.6284 38.9531 43.9253 40.6719H43.9409C46.769 42.125 49.269 44.125 51.2847 46.5312C52.394 47.8125 53.3472 49.2188 54.1284 50.7031C54.6753 51.7031 55.144 52.75 55.5347 53.8125C55.5659 53.9062 55.5972 53.9844 55.6284 54.0625C55.894 54.8437 56.1284 55.6562 56.3315 56.4688C56.4722 57.0469 56.5815 57.6406 56.6753 58.2344C56.7065 58.4219 56.7378 58.5937 56.7534 58.7812C56.9097 59.8594 56.9878 60.9687 56.9878 62.0937Z" fill="#FF6F00"/>
<path d="M53.7847 62.0938V62.25C53.7847 62.7813 53.7378 63.4531 53.6909 64.1719C53.644 64.7031 53.5972 65.25 53.5503 65.7656C53.0503 65.875 52.5347 65.9688 52.019 66.0156H52.0034C51.4097 66.0938 50.8315 66.125 50.2222 66.125H47.4878L46.894 65.9531L43.8159 65.0156L40.6909 64.0781L33.4565 61.9063L30.3315 60.9688C30.3315 60.9688 29.0347 61.4844 27.2065 62.0938H27.1909C26.4878 62.3281 25.7222 62.5781 24.9097 62.8281C23.894 63.125 22.8159 63.4219 21.7534 63.6562C20.6597 63.9062 19.5815 64.0938 18.6128 64.1719C18.3159 64.2031 18.019 64.2188 17.7534 64.2188C16.8784 63.7344 16.0347 63.1562 15.269 62.5156C14.5972 61.9531 13.9722 61.3438 13.394 60.6719C12.9565 60.1719 12.5659 59.6563 12.1909 59.0938C12.3003 58.3906 12.4253 57.7031 12.6128 57.0313C13.0815 55.1719 13.8159 53.3906 14.7847 51.7656C15.3159 50.8438 15.9097 49.9531 16.5972 49.125C16.6128 49.0781 16.6597 49.0313 16.7065 49C16.6909 48.9844 16.7065 48.9844 16.7065 48.9844C16.9097 48.7188 17.1284 48.4688 17.3472 48.2344C17.3472 48.2188 17.3472 48.2188 17.3472 48.2188C17.9878 47.5313 18.644 46.875 19.3628 46.2656C19.6128 46.0625 19.8472 45.8594 20.1128 45.6563C20.1597 45.6094 20.2065 45.5781 20.269 45.5313C23.7847 42.8438 28.1753 41.2188 32.9097 41.2188C38.2847 41.2188 43.1753 43.2344 46.8784 46.5469C48.6597 48.1563 50.1753 50.0781 51.3159 52.2187C51.4097 52.375 51.5034 52.5469 51.5815 52.7187C51.7222 53 51.8628 53.2969 51.9878 53.6094C52.5034 54.7344 52.9097 55.9219 53.1909 57.1406C53.2222 57.2656 53.2534 57.3906 53.2847 57.5156C53.4097 58.0938 53.519 58.6875 53.5972 59.2812C53.7222 60.2031 53.7847 61.1406 53.7847 62.0938Z" fill="#FF9800"/>
<path d="M50.5659 62.0937C50.5659 62.4062 50.5503 62.75 50.5347 63.1094C50.5034 63.6875 50.4565 64.3125 50.3784 64.9531C50.3472 65.3437 50.2847 65.7344 50.2222 66.125H41.6597L40.0034 65.8594L33.5347 64.8281L32.6128 64.6875L30.5034 64.3437C29.5815 64.3437 27.5815 64.75 25.4722 65.1406C24.3628 65.3437 23.2378 65.5625 22.2222 65.7031C22.0972 65.7187 21.9722 65.7344 21.8628 65.75H21.8472C20.7534 65.5156 19.6909 65.1562 18.6909 64.6875C18.3784 64.5469 18.0659 64.3906 17.7534 64.2187C16.8784 63.7344 16.0347 63.1562 15.269 62.5156C15.2534 62.3281 15.2378 62.1719 15.2378 62.0937C15.2378 61.6875 15.2534 61.2969 15.2847 60.9062C15.3472 59.9062 15.4878 58.9375 15.7065 58C16.0503 56.5781 16.5503 55.2031 17.2222 53.9375C17.3472 53.6719 17.4878 53.4062 17.644 53.1562C17.7065 53.0312 17.7847 52.9219 17.8472 52.7969C18.1284 52.3438 18.4409 51.9062 18.7534 51.4687C19.4097 50.6094 20.144 49.7969 20.9253 49.0625C20.9409 49.0625 20.9409 49.0625 20.9409 49.0625C21.0034 49 21.0659 48.9375 21.1284 48.8906C21.2065 48.8281 21.269 48.75 21.3472 48.7031C21.6597 48.4219 21.9722 48.1719 22.3003 47.9375C22.3003 47.9219 22.3159 47.9219 22.3159 47.9219C25.269 45.7187 28.9253 44.4219 32.9097 44.4219C36.0034 44.4219 38.8784 45.2031 41.394 46.5781H41.4097C43.5659 47.7656 45.4409 49.375 46.9253 51.3125C47.5034 52.0625 48.019 52.8594 48.4565 53.7031H48.4722C48.5503 53.8594 48.6284 54.0156 48.7065 54.1719C49.1753 55.0937 49.5503 56.0625 49.8315 57.0625H49.8472C49.8628 57.1406 49.894 57.2187 49.9097 57.2969C50.0972 57.9687 50.2534 58.6562 50.3628 59.3594C50.3784 59.5 50.394 59.6562 50.4097 59.7969C50.519 60.5469 50.5659 61.3125 50.5659 62.0937Z" fill="#FFC107"/>
<path d="M47.3628 61.9219C47.3628 62.1719 47.3628 62.4375 47.3315 62.6875V62.7031C47.3315 62.7188 47.3315 62.7187 47.3315 62.7187C47.3003 63.8438 47.144 64.9531 46.894 65.9531C46.894 66.0156 46.8784 66.0625 46.8472 66.125H39.5503L33.5347 64.8281L32.7378 64.6563L32.6128 64.6875L25.9409 66.0625L25.644 66.125H25.2222C24.2222 66.125 23.2378 66.0312 22.2847 65.8438C22.144 65.8125 22.0034 65.7812 21.8628 65.75H21.8472C20.7534 65.5156 19.6909 65.1563 18.6909 64.6875C18.6597 64.5156 18.6284 64.3438 18.6128 64.1719C18.5034 63.5 18.4565 62.7969 18.4565 62.0937C18.4565 61.8281 18.4565 61.5625 18.4722 61.2969C18.519 60.4531 18.644 59.625 18.8315 58.8281C18.9565 58.2344 19.1284 57.6562 19.3315 57.1094C19.5034 56.625 19.7065 56.1563 19.9253 55.7031C20.1128 55.3125 20.3315 54.9375 20.5503 54.5625C20.769 54.2031 21.0034 53.8594 21.2534 53.5156C21.8784 52.6563 22.6128 51.8594 23.4253 51.1562C23.894 50.75 24.4097 50.3594 24.9409 50.0156C27.2222 48.5156 29.9565 47.6406 32.9097 47.6406C33.4878 47.6406 34.0503 47.6719 34.5972 47.75H34.6284C36.3003 47.9375 37.8628 48.4063 39.3003 49.1094C39.3159 49.1094 39.3159 49.1094 39.3159 49.1094C41.5815 50.2188 43.5034 51.8906 44.9097 53.9531C45.144 54.2969 45.3784 54.6719 45.5815 55.0469C45.7534 55.3437 45.9097 55.6562 46.0503 55.9688C46.269 56.4531 46.4722 56.9688 46.644 57.4844H46.6597C46.8315 58.0625 46.9878 58.6406 47.0972 59.25V59.2656C47.269 60.125 47.3628 61.0156 47.3628 61.9219Z" fill="#FFD54F"/>
<path d="M44.144 62.25V62.2969C44.144 63.2187 44.0347 64.125 43.8159 65.0156C43.7378 65.3906 43.6284 65.7656 43.4878 66.125H36.4878L32.9097 65.1406L29.3315 66.125H25.2222C24.2222 66.125 23.2378 66.0312 22.2847 65.8438C22.2534 65.7969 22.2378 65.75 22.2222 65.7031C22.0034 65.0312 21.8315 64.3594 21.7534 63.6562C21.6909 63.2031 21.6597 62.7344 21.6597 62.25C21.6597 62.0625 21.6597 61.8594 21.6909 61.6719C21.7065 60.9375 21.8159 60.2187 22.0034 59.5312C22.0972 59.0625 22.2378 58.6094 22.4253 58.1719C22.4878 57.9531 22.5815 57.75 22.6909 57.5469C22.9253 57.0156 23.2065 56.5 23.519 56C23.8628 55.5 24.2378 55.0312 24.6597 54.5937C25.1597 54.0312 25.7222 53.5156 26.3628 53.0938C27.4565 52.2969 28.7065 51.7031 30.0659 51.375C30.9722 51.125 31.9253 51 32.9097 51C36.0347 51 38.8315 52.25 40.8628 54.2656C40.9409 54.3438 41.0347 54.4375 41.1128 54.5469H41.1284C41.3472 54.7813 41.5503 55.0156 41.7534 55.2813C42.3315 56.0156 42.8159 56.8125 43.1909 57.6875C43.3784 58.0937 43.5347 58.5156 43.6597 58.9531C43.6753 59.0156 43.6909 59.0625 43.7065 59.125C43.9253 59.8906 44.0659 60.6875 44.0972 61.5156C44.1284 61.75 44.144 62 44.144 62.25Z" fill="#FFE082"/>
<path d="M40.9409 62.25C40.9409 62.8906 40.8628 63.5 40.6909 64.0781C40.5347 64.7031 40.3003 65.2969 40.0034 65.8594C39.9565 65.9531 39.8472 66.125 39.8472 66.125H25.9722C25.9565 66.1094 25.9409 66.0781 25.9409 66.0625C25.7534 65.7656 25.5972 65.4687 25.4722 65.1406C25.1597 64.4219 24.9722 63.6406 24.9097 62.8281C24.8784 62.6406 24.8784 62.4375 24.8784 62.25C24.8784 62.1562 24.8784 62.0469 24.894 61.9531C24.9097 61.2656 25.0034 60.6094 25.1909 60C25.3472 59.4375 25.5503 58.9219 25.8159 58.4219C25.8159 58.4219 25.8315 58.4062 25.8315 58.3906C26.019 58.0625 26.2222 57.7344 26.4565 57.4219C27.2222 56.3906 28.2378 55.5469 29.4097 55C29.4253 55 29.4253 55 29.4253 55C29.8003 54.8125 30.1909 54.6562 30.5972 54.5469C30.5972 54.5469 30.5972 54.5469 30.6128 54.5469C31.3315 54.3281 32.1128 54.2188 32.9097 54.2188C33.8315 54.2188 34.7222 54.3594 35.5347 54.6562C35.8315 54.7344 36.1128 54.8594 36.394 55C36.394 55 36.394 55 36.4097 55C37.7534 55.6406 38.894 56.6406 39.6753 57.8906C39.8315 58.125 39.9722 58.375 40.0972 58.6406C40.1597 58.75 40.2222 58.875 40.269 58.9844C40.6284 59.7969 40.8472 60.6875 40.9097 61.625C40.9253 61.7031 40.9253 61.7812 40.9253 61.875C40.9409 62 40.9409 62.125 40.9409 62.25Z" fill="#FFECB3"/>
<path d="M47.0972 17.6875H28.3472C22.2534 17.6875 17.4097 22.5312 17.4097 28.625V47.375C17.4097 53.4688 22.2534 58.3125 28.3472 58.3125H47.0972C53.1909 58.3125 58.0347 53.4688 58.0347 47.375V28.625C58.0347 22.5312 53.1909 17.6875 47.0972 17.6875Z" stroke="white" stroke-width="4" stroke-miterlimit="10" stroke-linecap="round" stroke-linejoin="round"/>
<path d="M48.6597 27.0625C49.5226 27.0625 50.2222 26.3629 50.2222 25.5C50.2222 24.6371 49.5226 23.9375 48.6597 23.9375C47.7967 23.9375 47.0972 24.6371 47.0972 25.5C47.0972 26.3629 47.7967 27.0625 48.6597 27.0625Z" fill="white"/>
<path d="M37.7222 47.375C42.8998 47.375 47.0972 43.1777 47.0972 38C47.0972 32.8223 42.8998 28.625 37.7222 28.625C32.5445 28.625 28.3472 32.8223 28.3472 38C28.3472 43.1777 32.5445 47.375 37.7222 47.375Z" stroke="white" stroke-width="4" stroke-miterlimit="10" stroke-linecap="round" stroke-linejoin="round"/>
</svg>
