<svg width="97" height="96" viewBox="0 0 97 96" fill="none" xmlns="http://www.w3.org/2000/svg">
<path d="M84.2222 74C84.2222 79.524 79.7462 84 74.2222 84H22.2222C16.7002 84 12.2222 79.524 12.2222 74V22C12.2222 16.476 16.7002 12 22.2222 12H74.2222C79.7462 12 84.2222 16.476 84.2222 22V74Z" fill="#0288D1"/>
<path d="M24.2222 38H34.2222V72H24.2222V38ZM29.1922 34H29.1362C26.1522 34 24.2222 31.776 24.2222 28.998C24.2222 26.16 26.2122 24 29.2502 24C32.2922 24 34.1662 26.16 34.2222 28.998C34.2222 31.774 32.2922 34 29.1922 34ZM72.2222 72H62.2222V53.802C62.2222 49.406 59.7722 46.406 55.8382 46.406C52.8362 46.406 51.2122 48.43 50.4242 50.386C50.1362 51.086 50.2222 53.022 50.2222 54V72H40.2222V38H50.2222V43.232C51.6642 41 53.9222 38 59.6982 38C66.8542 38 72.2202 42.5 72.2202 52.548L72.2222 72Z" fill="white"/>
</svg>
